<svg xmlns="http://www.w3.org/2000/svg" xmlns:xlink="http://www.w3.org/1999/xlink" width="400" zoomAndPan="magnify" viewBox="0 0 300 60" height="80" preserveAspectRatio="xMidYMid meet" version="1.0"><defs><g/><clipPath id="369864abf2"><path d="M 10 16 L 39 16 L 39 46.808594 L 10 46.808594 Z M 10 16 " clip-rule="nonzero"/></clipPath><clipPath id="27c0d7b018"><path d="M 11.21875 14.558594 L 44.292969 14.558594 L 44.292969 46.808594 L 11.21875 46.808594 Z M 11.21875 14.558594 " clip-rule="nonzero"/></clipPath></defs><g clip-path="url(#369864abf2)"><path fill="#7ed957" d="M 38.738281 45.933594 C 38.660156 46.085938 38.511719 46.199219 38.355469 46.277344 C 37.9375 46.542969 37.402344 46.390625 36.984375 46.125 C 36.757812 45.96875 36.527344 45.78125 36.335938 45.554688 C 35.347656 44.523438 34.394531 43.457031 33.402344 42.390625 C 29.476562 38.121094 25.550781 33.851562 21.585938 29.582031 C 21.285156 29.238281 20.976562 28.9375 20.671875 28.589844 C 20.292969 28.210938 19.71875 27.984375 19.1875 28.019531 C 18.765625 28.058594 12.859375 27.105469 10.765625 21.882812 C 9.277344 18.148438 13.355469 15.519531 16.441406 17.425781 C 20.140625 19.710938 21.128906 25.3125 21.167969 26.078125 C 21.167969 26.609375 21.285156 27.144531 21.664062 27.527344 C 22.082031 27.945312 22.425781 28.402344 22.882812 28.820312 C 25.628906 31.527344 28.410156 34.234375 31.152344 36.9375 C 33.476562 39.226562 35.804688 41.511719 38.128906 43.800781 C 38.703125 44.445312 39.234375 45.171875 38.738281 45.929688 L 38.738281 45.933594 " fill-opacity="1" fill-rule="nonzero"/></g><g clip-path="url(#27c0d7b018)"><path fill="#7ed957" d="M 31.726562 26.535156 C 31.726562 26.800781 31.957031 26.992188 32.105469 26.992188 C 32.375 26.992188 32.71875 26.953125 32.90625 26.800781 C 35.117188 24.628906 37.289062 22.417969 39.5 20.207031 C 39.804688 19.902344 39.996094 19.558594 39.617188 19.214844 C 39.273438 18.875 38.929688 19.0625 38.625 19.371094 C 36.449219 21.539062 34.242188 23.75 32.070312 25.921875 C 31.917969 26.078125 31.726562 26.265625 31.726562 26.535156 Z M 41.558594 21.5 C 41.40625 21.539062 41.175781 21.734375 40.988281 21.921875 C 38.851562 24.019531 36.757812 26.152344 34.621094 28.285156 C 34.507812 28.402344 34.394531 28.515625 34.355469 28.628906 C 34.28125 28.859375 34.28125 29.199219 34.429688 29.355469 C 34.582031 29.507812 34.925781 29.542969 35.15625 29.429688 C 35.308594 29.355469 35.421875 29.238281 35.535156 29.125 C 37.636719 27.03125 39.765625 24.894531 41.867188 22.800781 C 41.980469 22.683594 42.128906 22.570312 42.207031 22.417969 C 42.433594 21.996094 42.128906 21.386719 41.558594 21.503906 Z M 29.285156 24.09375 C 29.441406 24.359375 29.554688 24.550781 29.707031 24.589844 C 29.9375 24.628906 30.277344 24.550781 30.433594 24.359375 C 32.679688 22.152344 34.851562 19.941406 37.101562 17.726562 C 37.363281 17.464844 37.558594 17.121094 37.214844 16.777344 C 36.871094 16.433594 36.527344 16.546875 36.222656 16.851562 C 34.011719 19.0625 31.804688 21.273438 29.628906 23.484375 C 29.476562 23.636719 29.324219 23.714844 29.285156 24.09375 Z M 30.199219 27.675781 C 29.324219 26.800781 28.488281 26 27.6875 25.160156 C 27.117188 24.589844 27.078125 24.171875 27.648438 23.601562 C 30.507812 20.703125 33.402344 17.84375 36.300781 14.984375 C 36.871094 14.414062 37.289062 14.414062 37.859375 14.984375 C 39.882812 17.007812 41.867188 18.988281 43.886719 21.007812 C 44.453125 21.578125 44.453125 21.996094 43.886719 22.53125 C 40.988281 25.425781 38.089844 28.324219 35.195312 31.222656 C 34.660156 31.757812 34.242188 31.757812 33.667969 31.222656 C 32.832031 30.382812 32.03125 29.582031 31.191406 28.703125 C 31.042969 28.859375 30.886719 28.972656 30.734375 29.085938 C 28.332031 31.488281 25.894531 33.890625 23.492188 36.328125 C 23.148438 36.671875 23.265625 37.054688 23.148438 37.316406 C 23 37.585938 22.882812 37.664062 22.652344 37.890625 L 14.078125 46.464844 C 13.46875 47.078125 12.746094 47.113281 12.210938 46.582031 C 11.714844 46.085938 11.753906 45.359375 12.328125 44.789062 C 15.1875 41.894531 18.082031 39.035156 20.980469 36.175781 C 21.128906 36.023438 21.511719 35.71875 21.703125 35.71875 C 22.351562 35.679688 22.503906 35.375 22.882812 34.996094 C 25.359375 32.515625 27.722656 30.152344 30.199219 27.675781 " fill-opacity="1" fill-rule="nonzero"/></g><g fill="#7ed957" fill-opacity="1"><g transform="translate(48.828176, 46.412422)"><g><path d="M 14.46875 0.421875 C 11.976562 0.421875 9.828125 -0.140625 8.015625 -1.265625 C 6.203125 -2.398438 4.800781 -4.113281 3.8125 -6.40625 C 2.832031 -8.695312 2.34375 -11.523438 2.34375 -14.890625 C 2.34375 -18.285156 2.929688 -21.125 4.109375 -23.40625 C 5.296875 -25.695312 6.9375 -27.398438 9.03125 -28.515625 C 11.132812 -29.640625 13.570312 -30.203125 16.34375 -30.203125 C 19.1875 -30.203125 21.613281 -29.671875 23.625 -28.609375 C 25.632812 -27.554688 27.046875 -25.984375 27.859375 -23.890625 L 23.5625 -21.28125 L 23.0625 -21.3125 C 22.445312 -22.632812 21.585938 -23.601562 20.484375 -24.21875 C 19.378906 -24.832031 18 -25.140625 16.34375 -25.140625 C 13.769531 -25.140625 11.800781 -24.328125 10.4375 -22.703125 C 9.082031 -21.078125 8.40625 -18.472656 8.40625 -14.890625 C 8.40625 -11.296875 9.039062 -8.679688 10.3125 -7.046875 C 11.582031 -5.421875 13.460938 -4.609375 15.953125 -4.609375 C 18.097656 -4.609375 19.675781 -5.085938 20.6875 -6.046875 C 21.707031 -7.015625 22.21875 -8.457031 22.21875 -10.375 L 22.21875 -11.65625 L 15.171875 -11.65625 L 15.171875 -16.4375 L 28.078125 -16.4375 L 28.078125 0 L 22.453125 0 L 22.453125 -4 L 22.015625 -4.046875 C 21.410156 -2.628906 20.484375 -1.53125 19.234375 -0.75 C 17.992188 0.03125 16.40625 0.421875 14.46875 0.421875 Z M 14.46875 0.421875 "/></g></g></g><g fill="#7ed957" fill-opacity="1"><g transform="translate(79.88812, 46.412422)"><g><path d="M 22.203125 -9.96875 L 7.765625 -9.96875 C 7.921875 -8.007812 8.472656 -6.582031 9.421875 -5.6875 C 10.378906 -4.800781 11.679688 -4.359375 13.328125 -4.359375 C 14.609375 -4.359375 15.648438 -4.597656 16.453125 -5.078125 C 17.253906 -5.566406 17.898438 -6.296875 18.390625 -7.265625 L 18.828125 -7.265625 L 22.578125 -4.875 C 21.835938 -3.289062 20.726562 -2.007812 19.25 -1.03125 C 17.769531 -0.0625 15.796875 0.421875 13.328125 0.421875 C 11.003906 0.421875 8.992188 -0.015625 7.296875 -0.890625 C 5.609375 -1.773438 4.304688 -3.085938 3.390625 -4.828125 C 2.472656 -6.578125 2.015625 -8.707031 2.015625 -11.21875 C 2.015625 -13.769531 2.492188 -15.921875 3.453125 -17.671875 C 4.421875 -19.429688 5.726562 -20.738281 7.375 -21.59375 C 9.019531 -22.457031 10.867188 -22.890625 12.921875 -22.890625 C 16.097656 -22.890625 18.53125 -22.046875 20.21875 -20.359375 C 21.90625 -18.679688 22.75 -16.210938 22.75 -12.953125 C 22.75 -11.773438 22.707031 -10.859375 22.625 -10.203125 Z M 17.359375 -13.609375 C 17.304688 -15.316406 16.90625 -16.5625 16.15625 -17.34375 C 15.414062 -18.125 14.335938 -18.515625 12.921875 -18.515625 C 10.066406 -18.515625 8.390625 -16.878906 7.890625 -13.609375 Z M 17.359375 -13.609375 "/></g></g></g><g fill="#7ed957" fill-opacity="1"><g transform="translate(104.308367, 46.412422)"><g><path d="M 3.234375 0 L 3.234375 -22.46875 L 8.65625 -22.46875 L 8.65625 -19.171875 L 9.078125 -19.0625 C 10.484375 -21.613281 12.753906 -22.890625 15.890625 -22.890625 C 18.484375 -22.890625 20.382812 -22.179688 21.59375 -20.765625 C 22.8125 -19.359375 23.421875 -17.304688 23.421875 -14.609375 L 23.421875 0 L 17.78125 0 L 17.78125 -13.90625 C 17.78125 -15.40625 17.476562 -16.484375 16.875 -17.140625 C 16.28125 -17.796875 15.328125 -18.125 14.015625 -18.125 C 12.398438 -18.125 11.140625 -17.601562 10.234375 -16.5625 C 9.328125 -15.519531 8.875 -13.875 8.875 -11.625 L 8.875 0 Z M 3.234375 0 "/></g></g></g><g fill="#7ed957" fill-opacity="1"><g transform="translate(130.622755, 46.412422)"><g><path d="M 5.75 0.1875 C 5.03125 0.1875 4.394531 0.0390625 3.84375 -0.25 C 3.289062 -0.539062 2.867188 -0.941406 2.578125 -1.453125 C 2.285156 -1.972656 2.140625 -2.5625 2.140625 -3.21875 C 2.140625 -3.875 2.285156 -4.457031 2.578125 -4.96875 C 2.867188 -5.488281 3.289062 -5.894531 3.84375 -6.1875 C 4.394531 -6.488281 5.03125 -6.640625 5.75 -6.640625 C 6.476562 -6.640625 7.117188 -6.492188 7.671875 -6.203125 C 8.222656 -5.910156 8.644531 -5.503906 8.9375 -4.984375 C 9.226562 -4.472656 9.375 -3.890625 9.375 -3.234375 C 9.375 -2.242188 9.039062 -1.425781 8.375 -0.78125 C 7.71875 -0.132812 6.84375 0.1875 5.75 0.1875 Z M 5.75 0.1875 "/></g></g></g><g fill="#404040" fill-opacity="1"><g transform="translate(142.139308, 46.412422)"><g><path d="M 15.375 -29.78125 C 17.507812 -29.78125 19.332031 -29.390625 20.84375 -28.609375 C 22.363281 -27.828125 23.507812 -26.734375 24.28125 -25.328125 C 25.050781 -23.921875 25.4375 -22.289062 25.4375 -20.4375 C 25.4375 -18.570312 25.050781 -16.9375 24.28125 -15.53125 C 23.507812 -14.132812 22.363281 -13.046875 20.84375 -12.265625 C 19.332031 -11.492188 17.507812 -11.109375 15.375 -11.109375 L 9.75 -11.109375 L 9.75 0 L 3.875 0 L 3.875 -29.78125 Z M 14.609375 -15.765625 C 17.878906 -15.765625 19.515625 -17.320312 19.515625 -20.4375 C 19.515625 -23.550781 17.878906 -25.109375 14.609375 -25.109375 L 9.75 -25.109375 L 9.75 -15.765625 Z M 14.609375 -15.765625 "/></g></g></g><g fill="#404040" fill-opacity="1"><g transform="translate(169.349851, 46.412422)"><g><path d="M 23.875 -29.78125 L 23.875 -24.828125 L 15.28125 -24.828125 L 15.28125 0 L 9.40625 0 L 9.40625 -24.828125 L 0.8125 -24.828125 L 0.8125 -29.78125 Z M 23.875 -29.78125 "/></g></g></g><g fill="#404040" fill-opacity="1"><g transform="translate(194.034865, 46.412422)"><g><path d="M 16.28125 0.421875 C 13.53125 0.421875 11.109375 -0.144531 9.015625 -1.28125 C 6.929688 -2.425781 5.296875 -4.140625 4.109375 -6.421875 C 2.929688 -8.710938 2.34375 -11.535156 2.34375 -14.890625 C 2.34375 -18.242188 2.929688 -21.0625 4.109375 -23.34375 C 5.296875 -25.632812 6.929688 -27.347656 9.015625 -28.484375 C 11.109375 -29.628906 13.53125 -30.203125 16.28125 -30.203125 C 19.144531 -30.203125 21.578125 -29.640625 23.578125 -28.515625 C 25.578125 -27.398438 27.003906 -25.695312 27.859375 -23.40625 L 23.5625 -20.78125 L 23.0625 -20.796875 C 22.425781 -22.347656 21.5625 -23.457031 20.46875 -24.125 C 19.375 -24.800781 17.976562 -25.140625 16.28125 -25.140625 C 13.800781 -25.140625 11.867188 -24.320312 10.484375 -22.6875 C 9.097656 -21.050781 8.40625 -18.453125 8.40625 -14.890625 C 8.40625 -11.347656 9.097656 -8.757812 10.484375 -7.125 C 11.867188 -5.488281 13.800781 -4.671875 16.28125 -4.671875 C 20.144531 -4.671875 22.515625 -6.550781 23.390625 -10.3125 L 23.890625 -10.3125 L 28.234375 -8.046875 C 27.421875 -5.222656 26.03125 -3.101562 24.0625 -1.6875 C 22.09375 -0.28125 19.5 0.421875 16.28125 0.421875 Z M 16.28125 0.421875 "/></g></g></g><g fill="#404040" fill-opacity="1"><g transform="translate(223.241391, 46.412422)"><g><path d="M 3.234375 0 L 3.234375 -31.5 L 8.875 -31.5 L 8.875 -19.53125 L 9.3125 -19.453125 C 10.0625 -20.554688 10.976562 -21.40625 12.0625 -22 C 13.144531 -22.59375 14.453125 -22.890625 15.984375 -22.890625 C 20.941406 -22.890625 23.421875 -20.082031 23.421875 -14.46875 L 23.421875 0 L 17.78125 0 L 17.78125 -13.75 C 17.78125 -15.28125 17.472656 -16.390625 16.859375 -17.078125 C 16.253906 -17.773438 15.304688 -18.125 14.015625 -18.125 C 12.441406 -18.125 11.191406 -17.597656 10.265625 -16.546875 C 9.335938 -15.492188 8.875 -13.851562 8.875 -11.625 L 8.875 0 Z M 3.234375 0 "/></g></g></g><g fill="#404040" fill-opacity="1"><g transform="translate(249.555779, 46.412422)"><g><path d="M 22.203125 -9.96875 L 7.765625 -9.96875 C 7.921875 -8.007812 8.472656 -6.582031 9.421875 -5.6875 C 10.378906 -4.800781 11.679688 -4.359375 13.328125 -4.359375 C 14.609375 -4.359375 15.648438 -4.597656 16.453125 -5.078125 C 17.253906 -5.566406 17.898438 -6.296875 18.390625 -7.265625 L 18.828125 -7.265625 L 22.578125 -4.875 C 21.835938 -3.289062 20.726562 -2.007812 19.25 -1.03125 C 17.769531 -0.0625 15.796875 0.421875 13.328125 0.421875 C 11.003906 0.421875 8.992188 -0.015625 7.296875 -0.890625 C 5.609375 -1.773438 4.304688 -3.085938 3.390625 -4.828125 C 2.472656 -6.578125 2.015625 -8.707031 2.015625 -11.21875 C 2.015625 -13.769531 2.492188 -15.921875 3.453125 -17.671875 C 4.421875 -19.429688 5.726562 -20.738281 7.375 -21.59375 C 9.019531 -22.457031 10.867188 -22.890625 12.921875 -22.890625 C 16.097656 -22.890625 18.53125 -22.046875 20.21875 -20.359375 C 21.90625 -18.679688 22.75 -16.210938 22.75 -12.953125 C 22.75 -11.773438 22.707031 -10.859375 22.625 -10.203125 Z M 17.359375 -13.609375 C 17.304688 -15.316406 16.90625 -16.5625 16.15625 -17.34375 C 15.414062 -18.125 14.335938 -18.515625 12.921875 -18.515625 C 10.066406 -18.515625 8.390625 -16.878906 7.890625 -13.609375 Z M 17.359375 -13.609375 "/></g></g></g><g fill="#404040" fill-opacity="1"><g transform="translate(273.976026, 46.412422)"><g><path d="M 3.9375 0 L 3.9375 -18 L 0.75 -18 L 0.75 -22.484375 L 3.9375 -22.484375 C 3.695312 -23.441406 3.578125 -24.332031 3.578125 -25.15625 C 3.578125 -26.582031 3.90625 -27.800781 4.5625 -28.8125 C 5.21875 -29.820312 6.15625 -30.59375 7.375 -31.125 C 8.59375 -31.65625 10.046875 -31.921875 11.734375 -31.921875 C 14.222656 -31.921875 16.078125 -31.492188 17.296875 -30.640625 L 15.96875 -26.484375 L 15.546875 -26.40625 C 14.703125 -27 13.617188 -27.296875 12.296875 -27.296875 C 11.285156 -27.296875 10.523438 -27.046875 10.015625 -26.546875 C 9.503906 -26.054688 9.25 -25.382812 9.25 -24.53125 C 9.25 -24.15625 9.269531 -23.816406 9.3125 -23.515625 C 9.363281 -23.210938 9.453125 -22.867188 9.578125 -22.484375 L 15.984375 -22.484375 L 15.984375 -18 L 9.578125 -18 L 9.578125 0 Z M 3.9375 0 "/></g></g></g></svg>